<svg width="800" height="800" fill="none" xmlns="http://www.w3.org/2000/svg"><rect x="12" y="12" width="776" height="776" rx="388" fill="#E7E5E4"/><rect x="12" y="12" width="776" height="776" rx="388" stroke="#fff" stroke-width="24"/><path d="M220 520a20 20 0 0 1-20-20V240a20 20 0 0 1 20-20h100a80.005 80.005 0 0 1 56.569 23.431A80.005 80.005 0 0 1 400 300a80.005 80.005 0 0 1 23.431-56.569A80.005 80.005 0 0 1 480 220h100a20 20 0 0 1 20 20v260a20 20 0 0 1-20 20H460a59.996 59.996 0 0 0-42.426 17.574A59.996 59.996 0 0 0 400 580a59.996 59.996 0 0 0-17.574-42.426A59.996 59.996 0 0 0 340 520H220Z" fill="#D6D3D1"/><path d="M400 300v280M220 520a20 20 0 0 1-20-20V240a20 20 0 0 1 20-20h100a80.005 80.005 0 0 1 56.569 23.431A80.005 80.005 0 0 1 400 300a80.005 80.005 0 0 1 23.431-56.569A80.005 80.005 0 0 1 480 220h100a20 20 0 0 1 20 20v260a20 20 0 0 1-20 20H460a59.996 59.996 0 0 0-42.426 17.574A59.996 59.996 0 0 0 400 580a59.996 59.996 0 0 0-17.574-42.426A59.996 59.996 0 0 0 340 520H220Z" stroke="#57534E" stroke-width="24" stroke-linecap="round" stroke-linejoin="round"/><path d="M492.333 391h-2.666a5.336 5.336 0 0 0-5.334 5.333v13.334A5.334 5.334 0 0 1 479 415a5.334 5.334 0 0 1 5.333 5.333v13.334c0 2.933 2.4 5.333 5.334 5.333h2.666M513.667 439h2.666a5.332 5.332 0 0 0 5.334-5.333v-13.334c0-2.933 2.4-5.333 5.333-5.333a5.332 5.332 0 0 1-5.333-5.333v-13.334a5.33 5.33 0 0 0-5.334-5.333h-2.666M316 425.667 326.667 415 316 404.333M284 404.333 273.333 415 284 425.667M306.667 393.667l-13.334 42.666M513.667 336l16-16-16-16M492.333 304l-16 16 16 16M306.667 296h8v48h-8M285.333 344h-8v-48h8" stroke="#44403C" stroke-width="8" stroke-linecap="round" stroke-linejoin="round"/></svg>